#define link_width 26
#define link_height 12
static unsigned char link_bits[] = {
   0xf0, 0x8f, 0x3f, 0x00, 0xfc, 0xdf, 0xff, 0x00, 0x1e, 0xb8, 0xe0, 0x01,
   0x06, 0x70, 0x80, 0x01, 0x07, 0x68, 0x80, 0x03, 0x03, 0xec, 0x00, 0x03,
   0x03, 0xdc, 0x00, 0x03, 0x07, 0x58, 0x80, 0x03, 0x06, 0x38, 0x80, 0x01,
   0x1e, 0x74, 0xe0, 0x01, 0xfc, 0xef, 0xff, 0x00, 0xf0, 0xc7, 0x3f, 0x00 };
